<svg id="Capa_1" data-name="Capa 1" xmlns="http://www.w3.org/2000/svg" viewBox="0 0 250 137.27"><defs><style>.cls-1{fill:#b3b3b3;}</style></defs><title>logo</title><path class="cls-1" d="M73.09,68.12V52.25h7.66v2.41h-4v3.47h3.83v2.41H76.79v7.58Z"/><path class="cls-1" d="M91,63.79c0,3.63-2.22,4.64-4.67,4.64s-4.68-1-4.68-4.64V56.58c0-3.64,2.22-4.64,4.68-4.64s4.67,1,4.67,4.64Zm-5.66.85c0,.65.21,1.25,1,1.25s1-.6,1-1.25V55.73c0-.65-.21-1.25-1-1.25s-1,.6-1,1.25Z"/><path class="cls-1" d="M92.25,68.12V52.25H96c3.52,0,5.61.36,5.61,3.7,0,2-.82,3.28-2.83,3.61v0c1.78,0,2.83.71,2.83,3v3.32a4.11,4.11,0,0,0,.56,2.21H98.42a4.08,4.08,0,0,1-.54-2.21V62.55c0-1.12-.66-1.68-1.33-1.68H96v7.25ZM96,58.6c1.67,0,1.93-.55,1.93-2.05s-.24-2-1.93-2Z"/><path class="cls-1" d="M105.86,68.12h-3V52.25h5.43l1.56,11.28h0l1.56-11.28h5.33V68.12h-3.34V54.57h0l-2.14,13.55H108L105.9,54.57h0Z"/><path class="cls-1" d="M125.6,52.25l2,15.87H124l-.42-3.9h-2l-.6,3.9h-3.12l2.7-15.87Zm-2.32,9.56-.65-7.06h0l-.65,7.06Z"/><path class="cls-1" d="M126.86,54.66V52.25h8.87v2.41h-2.58V68.12h-3.7V54.66Z"/><path class="cls-1" d="M145.66,63.79c0,3.63-2.23,4.64-4.68,4.64s-4.68-1-4.68-4.64V56.58c0-3.64,2.23-4.64,4.68-4.64s4.68,1,4.68,4.64Zm-5.66.85c0,.65.2,1.25,1,1.25s1-.6,1-1.25V55.73c0-.65-.2-1.25-1-1.25s-1,.6-1,1.25Z"/><path class="cls-1" d="M80.09,86.71a3.16,3.16,0,0,1-1.52.9,5.91,5.91,0,0,1-1.69.22c-2.43,0-3.79-1-3.79-4.64V76c0-3.63,2.23-4.64,4.68-4.64,3,0,4.65,1.21,4.7,4.32l0,1.68h-3.7V75.13c0-.65-.2-1.25-1-1.25s-1,.6-1,1.25V84c0,.65.18,1.25,1,1.25s1-.6,1-1.25V81.92h-1.4v-2.4h5.1v8H80.29Z"/><path class="cls-1" d="M83.67,87.52V71.65h3.72c3.52,0,5.62.36,5.62,3.7,0,2-.83,3.28-2.83,3.61V79c1.78,0,2.83.71,2.83,3v3.32a4.19,4.19,0,0,0,.55,2.21H89.84a4.16,4.16,0,0,1-.53-2.21V82c0-1.12-.67-1.67-1.34-1.67h-.6v7.24ZM87.37,78c1.67,0,1.94-.55,1.94-2s-.25-2-1.94-2Z"/><path class="cls-1" d="M101.87,71.65l2,15.87h-3.67l-.43-3.9h-2l-.6,3.9H94.1l2.69-15.87Zm-2.32,9.56-.64-7.06h0l-.64,7.06Z"/><path class="cls-1" d="M104.92,87.52V71.65h7.67v2.41h-4v3.48h3.83v2.4h-3.83v7.58Z"/><path class="cls-1" d="M113.43,87.52V71.65h3.7V87.52Z"/><path class="cls-1" d="M127.69,81.35v2.09c0,3-1.58,4.39-4.7,4.39-2.45,0-4.66-1-4.66-4.64V76c0-3.63,2.21-4.64,4.66-4.64,2.69,0,4.7.8,4.7,4.24v1.73H124V75.13c0-.65-.2-1.25-1-1.25s-1,.6-1,1.25V84c0,.65.2,1.25,1,1.25s1-.6,1-1.25l0-2.69Z"/><path class="cls-1" d="M138.31,83.19c0,3.64-2.22,4.64-4.67,4.64s-4.68-1-4.68-4.64V76c0-3.63,2.23-4.64,4.68-4.64s4.67,1,4.67,4.64Zm-5.65.85c0,.65.2,1.25,1,1.25s1-.6,1-1.25V75.13c0-.65-.2-1.25-1-1.25s-1,.6-1,1.25Z"/><polygon class="cls-1" points="176.91 118.72 76.74 118.72 76.74 92.44 79.34 92.44 79.34 116.12 174.31 116.12 174.31 21.15 79.34 21.15 79.34 44.82 76.74 44.82 76.74 18.55 176.91 18.55 176.91 118.72"/></svg>