<svg id="Capa_1" data-name="Capa 1" xmlns="http://www.w3.org/2000/svg" viewBox="0 0 250 137.27"><defs><style>.cls-1{fill:#b3b3b3;}</style></defs><title>logo</title><path class="cls-1" d="M118.52,63c-4.29,0-8,4.08-8,10.59,0,4.59,2.43,7,5.73,7,4.29,0,7.95-4.07,7.95-10.58C124.24,65.4,121.82,63,118.52,63ZM78.66,38.74C45.7,38.74,19,52.12,19,68.63s26.73,29.9,59.69,29.9,59.68-13.38,59.68-29.9S111.62,38.74,78.66,38.74ZM48,63.64c6.19,2.38,9.6,5.63,9.6,11.15,0,7.18-4.85,11.67-13.93,11.67C35.55,86.46,30,82.53,30,74H37.4c.11,4.64,3,6.08,6.62,6.08,3.35,0,6.19-1.54,6.19-4.53,0-2.74-1.29-3.82-7.48-6.3-5.58-2.22-9.35-4.86-9.35-10.48,0-7.74,6.14-11.2,13.06-11.2,12.91,0,13.22,8.88,13.32,11.67H52.32c0-2.59-1.24-5.27-6.08-5.27-3,0-5.43,1.34-5.43,4.18C40.81,60.08,41.54,61.17,48,63.64ZM67.09,85.53H59.87l4.95-27.46h7.23ZM65.7,54l1.18-6.4h7.23L72.93,54Zm22.93,9.14h-4L82.32,76.34a20.2,20.2,0,0,0-.26,2.12c0,1,.62,1.39,1.65,1.39a14.23,14.23,0,0,0,2.74-.47l-.82,5.89a14.91,14.91,0,0,1-4.39.67c-3.2,0-6.66-1.13-6.66-5.27a20.67,20.67,0,0,1,.47-3.4l2.37-14.14H73.5l1-5.06H78.4l1.11-5.38L87,50.17l-1.45,7.9H89.5Zm8.46,22.4H89.86l5-27.46h7.23ZM95.69,54l1.19-6.4h7.23L102.92,54Zm20.09,32.37c-6.92,0-12.65-4.45-12.65-12.86,0-5.78,3.77-16.26,15.9-16.26,7.17,0,12.65,4.13,12.65,12.86C131.68,75.88,127.91,86.36,115.78,86.36Z"/><path class="cls-1" d="M19,92.85l8.26-2.27-7.9-2.27,11.89.18c1.42.9,3,1.75,4.59,2.58,1.16.58,2.36,1.14,3.6,1.65Z"/><path class="cls-1" d="M231,91.54l-112,.69c.84-.37,1.66-.76,2.47-1.16s1.48-.77,2.2-1.17Z"/><path class="cls-1" d="M152,48.47l-3.77,21.47a37.14,37.14,0,0,0-.51,4.34c0,4.85,4,5.73,6.34,5.73,6.77,0,7.75-5.32,8.83-11.41l3.72-20.13h7.69L170.21,71c-1.91,10.43-5.83,15.49-16.93,15.49C147.19,86.46,140,82.84,140,75a39.69,39.69,0,0,1,.67-5.94l3.57-20.59Z"/><path class="cls-1" d="M176.67,58.07h6.71l-1.14,5c2.33-3.51,5.48-5.67,9.76-5.67,3.92,0,7.9,2.22,7.9,7.43a24.49,24.49,0,0,1-.52,5.21l-2.89,15.54h-7.28L192.1,70.2a19.79,19.79,0,0,0,.42-3.25,3.23,3.23,0,0,0-3.36-3.51c-4.39,0-6.81,3.25-7.64,8.1l-2.53,14h-7.28Z"/><path class="cls-1" d="M218.38,57.24c7.18,0,12.65,4.13,12.65,12.86,0,5.78-3.77,16.25-15.9,16.25-6.92,0-12.65-4.43-12.65-12.85C202.48,67.72,206.25,57.24,218.38,57.24Zm-2.73,23.33c4.28,0,7.95-4.07,7.95-10.58,0-4.59-2.43-7-5.73-7-4.29,0-8,4.08-8,10.59C209.92,78.2,212.34,80.57,215.65,80.57Z"/></svg>