<svg id="Capa_1" data-name="Capa 1" xmlns="http://www.w3.org/2000/svg" viewBox="0 0 250 137.27"><defs><style>.cls-1,.cls-2{fill:#b3b3b3;}.cls-2{font-size:18.94px;font-family:GillSansMT-Bold, Gill Sans MT;font-weight:700;letter-spacing:-0.03em;}.cls-3{letter-spacing:-0.1em;}.cls-4{letter-spacing:0.03em;}.cls-5{letter-spacing:-0.04em;}.cls-6{letter-spacing:-0.06em;}</style></defs><title>logo</title><path class="cls-1" d="M76.75,45.53a50.42,50.42,0,0,0-1,10"/><path class="cls-1" d="M87,45.53a39.56,39.56,0,0,0-1.26,10h34.92a5,5,0,0,1,5,5h0a5,5,0,0,1-5,5H87a39.53,39.53,0,0,0,4.08,10h29.59a5,5,0,0,1,5,5h0a5,5,0,0,1-5,5H99.24a40.14,40.14,0,0,0,6.45,4.64,40.59,40.59,0,0,0,6.65,3.07,5,5,0,0,1,3.33,4.7h0a5,5,0,0,1-6.64,4.71c-1.13-.4-2.24-.84-3.34-1.32a49.34,49.34,0,0,1-10-5.82,49.94,49.94,0,0,1-10-10h0a49.86,49.86,0,0,1-9-20,50.3,50.3,0,0,1,0-20A49.85,49.85,0,0,1,115.67,6.61c1.48-.3,3-.53,4.49-.7a5,5,0,0,1,5.5,5h0a5,5,0,0,1-4.44,4.95,38.82,38.82,0,0,0-5.55,1A39.94,39.94,0,0,0,87,45.53Z"/><path class="cls-1" d="M175.55,55.51a49.87,49.87,0,0,1-4.15,20,50.38,50.38,0,0,1-5.82,10h0a50.15,50.15,0,0,1-10,10,49.49,49.49,0,0,1-10,5.82c-1.09.48-2.2.92-3.34,1.32a5,5,0,0,1-6.64-4.71h0a5,5,0,0,1,3.34-4.7,39.26,39.26,0,0,0,6.64-3.07,40.05,40.05,0,0,0,6.46-4.64,45.22,45.22,0,0,0,3.53-3.53,40.77,40.77,0,0,0,4.64-6.45,40,40,0,0,0,0-39.92H130.65a5,5,0,0,1-5-5h0a5,5,0,0,1,5-5h34.92a49.73,49.73,0,0,1,10,29.94Z"/><text class="cls-2" transform="translate(74.13 125.34)">HI<tspan class="cls-3" x="20.87" y="0">O</tspan><tspan class="cls-4" x="35.6" y="0">T</tspan><tspan class="cls-5" x="49.71" y="0">T</tspan><tspan class="cls-6" x="62.58" y="0">ECH</tspan></text></svg>